<?xml version="1.0" encoding="UTF-8" standalone="no"?>
<!DOCTYPE svg PUBLIC "-//W3C//DTD SVG 1.1//EN" "http://www.w3.org/Graphics/SVG/1.1/DTD/svg11.dtd">
<svg version="1.1" xmlns="http://www.w3.org/2000/svg" xmlns:xlink="http://www.w3.org/1999/xlink" preserveAspectRatio="xMidYMid meet" viewBox="0 0 640 640" width="640" height="640"><defs><path d="M640 320C640 496.61 496.61 640 320 640C143.39 640 0 496.61 0 320C0 143.39 143.39 0 320 0C496.61 0 640 143.39 640 320Z" id="a4Tyw7leEn"></path><path d="M346.33 143.72L346.33 450.37L532.74 272.16L570 307.78L372.81 496.28L437.84 496.28L437.84 546.65L202.13 546.65L202.13 496.28L293.64 496.28L293.64 390.54L292.93 391.23L187.86 290.79L107.26 367.84L70 332.22L267.19 143.72L202.13 143.72L202.13 93.35L437.84 93.35L437.84 143.72L346.33 143.72ZM293.64 320.69L293.64 189.66L225.11 255.17L293.64 320.69Z" id="aejEaFqbX"></path></defs><g><g><g><use xlink:href="#a4Tyw7leEn" opacity="1" fill="#ffffff" fill-opacity="1"></use></g><g><use xlink:href="#aejEaFqbX" opacity="1" fill="#000000" fill-opacity="1"></use><g><use xlink:href="#aejEaFqbX" opacity="1" fill-opacity="0" stroke="#000000" stroke-width="1" stroke-opacity="1"></use></g></g></g></g></svg>